<?xml version="1.0" encoding="utf-8"?>
<!-- Generator: Adobe Illustrator 26.0.0, SVG Export Plug-In . SVG Version: 6.00 Build 0)  -->
<svg version="1.1" id="Layer_1" xmlns="http://www.w3.org/2000/svg" xmlns:xlink="http://www.w3.org/1999/xlink" x="0px" y="0px"
	 viewBox="0 0 2034.8 582.2" style="enable-background:new 0 0 2034.8 582.2;" xml:space="preserve">
<style type="text/css">
	.st0{fill:url(#SVGID_1_);}
	.st1{fill:url(#SVGID_00000101787510711359366560000005885304962329849495_);}
	.st2{fill:url(#SVGID_00000142859763733910984490000010092641887204021136_);}
	.st3{fill:url(#SVGID_00000123427752029645236960000017754381216081379716_);}
	.st4{fill:url(#SVGID_00000140012036621943959940000013977616542332228789_);}
	.st5{fill:url(#SVGID_00000165955295036998757920000016294374941106206893_);}
	.st6{fill:url(#SVGID_00000173880496114642269500000006946071434479039928_);}
	.st7{fill:url(#SVGID_00000003077419102876623510000016356006901857576863_);}
	.st8{fill:url(#SVGID_00000170280602172209650370000004293675446427826582_);}
	.st9{fill:#363794;}
	.st10{fill:url(#SVGID_00000093893858211436957960000003884886861332028349_);}
	.st11{fill:url(#SVGID_00000174588533390610650360000018369723079885018527_);}
	.st12{fill:url(#SVGID_00000003803154047843705070000008293750755622191247_);}
	.st13{fill:url(#SVGID_00000142167989652284989590000017372853035262576272_);}
	.st14{fill:url(#SVGID_00000047767753570196904760000008287399217005128864_);}
	.st15{fill:url(#SVGID_00000166654561234217293620000010792411740088605579_);}
	.st16{fill:url(#SVGID_00000170237842941861118330000005298918290700193940_);}
	.st17{fill:url(#SVGID_00000152226254830856705870000014280759016115765681_);}
	.st18{fill:url(#SVGID_00000052786397278212133170000002979805184058276019_);}
</style>
<g>
	<g>
		<linearGradient id="SVGID_1_" gradientUnits="userSpaceOnUse" x1="-646.2563" y1="263.9954" x2="-853.4921" y2="-211.8783">
			<stop  offset="0" style="stop-color:#000000;stop-opacity:0"/>
			<stop  offset="1" style="stop-color:#000000;stop-opacity:0.3"/>
		</linearGradient>
		<path class="st0" d="M-763.9,188.4c-79.6-34.4-57.5-130.6-22.6-167.8c43.3-46.2,67.1,0.6,74.4-12.6c7.2-13.2-7.8-48.1-55.3-23.9
			c-115.1,58.5-106.9,195.3-50.7,228.1c141.9,82.8,287.5-57.9,287.5-57.9C-589.9,203.2-712.4,210.6-763.9,188.4z"/>
		
			<linearGradient id="SVGID_00000097489225127857021380000009318143403715671707_" gradientUnits="userSpaceOnUse" x1="-875.908" y1="118.2532" x2="-1031.5576" y2="-108.4667">
			<stop  offset="0" style="stop-color:#000000;stop-opacity:0"/>
			<stop  offset="1" style="stop-color:#000000;stop-opacity:0.3"/>
		</linearGradient>
		<path style="fill:url(#SVGID_00000097489225127857021380000009318143403715671707_);" d="M-882.5-47.1c0,0-116.5,109.5-48.1,222.1
			c0,0-101.7-59.5-59.9-200.1C-965.8-108.4-945.2-46.5-882.5-47.1z"/>
		
			<linearGradient id="SVGID_00000132802487917699300570000017699380866286789521_" gradientUnits="userSpaceOnUse" x1="-924.8091" y1="562.3804" x2="-924.7313" y2="562.3804" gradientTransform="matrix(0.9687 0.2481 -0.2481 0.9687 -12.4687 -126.8953)">
			<stop  offset="0" style="stop-color:#4898D3"/>
			<stop  offset="1" style="stop-color:#17154C"/>
		</linearGradient>
		<path style="fill:url(#SVGID_00000132802487917699300570000017699380866286789521_);" d="M-1047.8,188.6
			C-1047.8,188.6-1047.8,188.5-1047.8,188.6c0-0.1,0-0.2,0-0.2C-1047.8,188.4-1047.8,188.5-1047.8,188.6z"/>
		
			<radialGradient id="SVGID_00000144313957201900979060000001754221629039935635_" cx="-628.9461" cy="-326.3606" r="526.7198" gradientUnits="userSpaceOnUse">
			<stop  offset="2.930284e-07" style="stop-color:#363794"/>
			<stop  offset="1" style="stop-color:#D24899"/>
		</radialGradient>
		<path style="fill:url(#SVGID_00000144313957201900979060000001754221629039935635_);" d="M-660.9,35.7
			C-466,20.1-395.3-93.6-407.1-164.6c-39,49.9-163.5,98.9-256.8,95.8c210.3-74.1,228-246,209.4-275.1
			C-503.6-239-636.6-195.8-850.8-145.6C-1048-99.3-1000.2,117.1-968.2,61.9C-923.4-15.4-858-95.2-783.3-76.7
			c42.9,10.6,43.1,36.9,43.1,36.9s58.2,6.8,28,47.8c5.1-23.1-31.1-33.6-74.4,12.6c-34.8,37.2-57,133.4,22.6,167.8
			c51.5,22.2,174,14.8,233.3-34.1c-60.5,15.9-152.5-10.7-176.5-42.2c167.3,30,235.1-29.3,247.2-91.4
			C-514.1,53.3-593,57.9-660.9,35.7z"/>
		
			<radialGradient id="SVGID_00000091702315996500929870000002014233951155904165_" cx="-577.3286" cy="-296.3148" r="265.1755" gradientUnits="userSpaceOnUse">
			<stop  offset="2.930284e-07" style="stop-color:#363794"/>
			<stop  offset="1" style="stop-color:#D24899"/>
		</radialGradient>
		<path style="fill:url(#SVGID_00000091702315996500929870000002014233951155904165_);" d="M-658.3-70.8
			C-453.3-146-436-315.1-454.5-343.9c-0.6,1.2-1.1,2.3-1.7,3.5c-9.2,56.8-41.3,115.7-82.5,161.2C-603.3-107.8-725.1-56.3-658.3-70.8
			z"/>
		
			<radialGradient id="SVGID_00000008854164651264820460000004631550010521347977_" cx="-515.9521" cy="-108.5907" r="213.6281" gradientUnits="userSpaceOnUse">
			<stop  offset="2.930284e-07" style="stop-color:#363794"/>
			<stop  offset="1" style="stop-color:#D24899"/>
		</radialGradient>
		<path style="fill:url(#SVGID_00000008854164651264820460000004631550010521347977_);" d="M-460.2,20.7
			c-19.5,36.3-57.3,59.5-102,70.2c-92.9,22.2-201.2,2.8-137.1,22.5c161.5,26.8,227.4-31.7,239.3-92.8
			C-460,20.7-460.1,20.7-460.2,20.7z"/>
		
			<radialGradient id="SVGID_00000030446324368586536610000016790071439185953685_" cx="-549.3355" cy="-200.784" r="235.4564" gradientUnits="userSpaceOnUse">
			<stop  offset="2.930284e-07" style="stop-color:#363794"/>
			<stop  offset="1" style="stop-color:#D24899"/>
		</radialGradient>
		<path style="fill:url(#SVGID_00000030446324368586536610000016790071439185953685_);" d="M-406.9-163.5
			c-3.2,40.9-43.4,94.5-104.4,130.4C-591.5,14-729.1,31.5-657.7,35.4C-466.3,19-396.2-92.8-406.9-163.5z"/>
		
			<radialGradient id="SVGID_00000061441723069410785560000001374095852209485983_" cx="-644.3536" cy="-1.7597" r="202.6237" gradientUnits="userSpaceOnUse">
			<stop  offset="2.930284e-07" style="stop-color:#363794"/>
			<stop  offset="1" style="stop-color:#D24899"/>
		</radialGradient>
		<path style="fill:url(#SVGID_00000061441723069410785560000001374095852209485983_);" d="M-786.5,20.6
			c-34.8,37.2-57,133.4,22.6,167.8c51.5,22.2,174,14.8,233.3-34.1C-688.5,241.2-852.4,158-786.5,20.6z"/>
		
			<radialGradient id="SVGID_00000178903521195767564500000010670261273684167587_" cx="-760.9427" cy="-20.7612" r="230.4576" gradientUnits="userSpaceOnUse">
			<stop  offset="2.930284e-07" style="stop-color:#363794"/>
			<stop  offset="1" style="stop-color:#D24899"/>
		</radialGradient>
		<path style="fill:url(#SVGID_00000178903521195767564500000010670261273684167587_);" d="M-955.1-10.5
			c-3.5-97.5,167.2-133.3,195.6-157.6c-28.6,7.5-59,14.9-91.3,22.5C-1048-99.3-1000.2,117.1-968.2,61.9c14.3-24.7,30.8-49.7,49-71.7
			C-927.1-3.6-953.3,13.4-955.1-10.5z"/>
	</g>
	<path class="st9" d="M755.3,213.8v-15.1h45.2V218h-4.4L755.3,213.8z M800.5,364v19.3h-45.2v-15.1l40.8-4.2H800.5z M776.9,287.1
		c0-29.3,0-59-0.8-88.3h48.1c-0.8,28.8-0.8,58.4-0.8,88.3v6.8c0,30.7,0,60.1,0.8,89.5h-48.1c0.8-28.8,0.8-58.2,0.8-88.1V287.1z
		 M800.5,279.5h30.7c23.8,0,34.9-11.6,34.9-33.8c0-20.8-10.2-30.8-32.3-30.8h-33.2v-16.2h45.6c47.6,0,65.4,18.7,65.4,43.4
		c0,20.9-12.9,38.7-58.4,44v-2.5c49.7,3,69.3,20.7,69.3,47.9c0,23.5-17.2,51.8-87.1,51.8h-34.8v-16.2H833c26,0,41-12.3,41-36.1
		c0-25.5-13.3-36.7-41.3-36.7h-32.3V279.5z M1044.3,276c2.6,5.5,4.1,9.6,5,14.3l-99.4,46.9l-6.3-13.4l47.6-22.5
		c12.2-5.8,13.2-11.8,7.9-23.1c-7.9-16.7-19.8-21.2-29-16.8c-10.6,5-14.8,21.1,2.5,57.8c14.6,31,36.6,37.7,55.6,28.8
		c13.7-6.5,20.4-16.6,24.4-28.2l12.7,4.1c-1.1,24.8-14.7,43.2-39.3,54.8c-37,17.5-74.7,5.7-94.1-35.3c-20-42.4,1.8-80.8,34.6-96.2
		C999.9,231.3,1029.7,245.2,1044.3,276z M1058.9,374.7l0.7-34.5h22.6l6.4,37.6l-15.8-5.4v-11.6c12.3,7.4,22.1,11.3,35.2,11.3
		c16.2,0,25.1-5.3,25.1-16.6c0-8.8-5.2-14.6-23.7-20.1l-15.2-4.4c-21.7-6.4-34-20.8-34-41.9c0-25.9,20.8-45.9,58.7-45.9
		c16.6,0,30,4,44.5,11.3l-1.9,30.8h-22.6l-8.1-34.7l15.6,6.7v10.3c-10-6.4-16.1-9.1-28.7-9.1c-12.6,0-20.9,5.6-20.9,15.7
		c0,7.8,4.2,13.2,23.5,19l13.7,3.9c26.7,8,37.4,22.6,37.4,43.5c0,29.7-23.9,46.8-63.6,46.8C1089.4,387.6,1073.7,383.3,1058.9,374.7z
		 M1245.1,364.6c5.2,0,9.8-2.1,15.3-6.2l6.9,6.8c-7.4,14.3-20.6,22.4-41.1,22.4c-25.5,0-40.4-11.3-40.4-39c0-9.8,0.3-17.3,0.3-28.3
		v-53.5h-18.1v-16.7l33.2-4.3l-16.1,11.3l17.8-49h28.7l-0.6,50.6v86.8C1230.8,358.7,1236.7,364.6,1245.1,364.6z M1260.2,247.5v19.3
		h-51.6v-19.3H1260.2z M1307.6,213.8v-15.1h45.2V218h-4.4L1307.6,213.8z M1352.8,364v19.3h-45.2v-15.1l40.8-4.2H1352.8z
		 M1329.3,287.1c0-29.3,0-59-0.8-88.3h48.1c-0.8,28.8-0.8,58.4-0.8,88.3v6.8c0,30.7,0,60.1,0.8,89.5h-48.1
		c0.8-28.8,0.8-58.2,0.8-88.1V287.1z M1352.8,279.5h30.7c23.8,0,34.9-11.6,34.9-33.8c0-20.8-10.2-30.8-32.3-30.8h-33.2v-16.2h45.6
		c47.6,0,65.4,18.7,65.4,43.4c0,20.9-12.9,38.7-58.4,44v-2.5c49.7,3,69.3,20.7,69.3,47.9c0,23.5-17.2,51.8-87.2,51.8h-34.8v-16.2
		h32.5c26,0,41-12.3,41-36.1c0-25.5-13.3-36.7-41.3-36.7h-32.3V279.5z M1490.9,383.3c0.6-12.6,0.8-41.6,0.8-59v-13.4
		c0-15.5-0.3-24.2-0.8-35.4l-17.4-2.5v-11l58.8-18.7l4.8,3l-0.8,40.8v37.3c0,17.4,0.3,46.4,0.8,59H1490.9z M1550.8,370.3v13.1h-74.6
		v-13.1l26-5.6h21.2L1550.8,370.3z M1489.8,200.1c0-13.1,10.6-22.4,23.8-22.4c13.2,0,23.8,9.3,23.8,22.4c0,13-10.6,22.4-23.8,22.4
		C1500.4,222.5,1489.8,213.1,1489.8,200.1z M1566.6,324.3v-16.5c0-15.5-0.3-21.1-0.8-32.4l-17.2-2.5v-11l55.4-18.7l4.8,3l2.6,34.5
		v43.5c0,17.4,0.3,46.4,0.8,59h-46.5C1566.3,370.7,1566.6,341.8,1566.6,324.3z M1550.8,370.3l26.9-5.6h29.5l26.9,5.6v13.1h-83.2
		V370.3z M1590.6,287.2h21.1l-3.8,7.6c4.9-34.4,24.5-51.6,41.3-51.6c12.2,0,22.1,6.8,24.4,20.7c-0.6,14.6-8.7,22.9-19.9,22.9
		c-8.5,0-15-4.2-21.7-13l-8.2-10.7l11.3,4.1c-10.1,7.4-20.2,22.2-23.9,39l-20.6-2V287.2z M1740.5,363.2c13.5,0,22.9-10,31.8-23.8
		l3.3,4.5c-13.9,30.1-31,43.6-55.9,43.6c-31.8,0-56.1-25.1-56.1-70.9c0-45.7,30.2-73.4,61.9-73.4c24.3,0,36.1,13.4,49.1,38.3
		l-2.8,5.5c-11-13.3-19-20-30.5-20c-17,0-30,15.8-30,49.1C1711.2,347,1723.2,363.2,1740.5,363.2z M1816.3,370.3v13.1l-54.9,3.2
		l-3.6-25v-93.3l1.7-3v-58.6l-19.7-2.8v-11.9l59.4-12.6l4.5,2.9l-1.1,39.3v161.9l-19.1-20.4L1816.3,370.3z M1830.9,264.2l-25.5-4.4
		v-12.3h80v12.1l-25.2,4.5H1830.9z M1806.3,428.8c2.4-12.3,12.1-18.1,23.2-18.1c7.5,0,16.6,2,24.2,13l8.7,12.8l-10.6,4.8l-8.6-4.8
		c13.4-8.1,24.8-23.4,31.4-42.2l14.8-42.5l36.8-104.2h18.4l-56.7,147.3c-13.8,36-26.5,55.1-52.6,55.1
		C1820.4,449.9,1807.3,440.7,1806.3,428.8z M1877.7,401l-65.2-153.5h48.4l37.6,104.3L1877.7,401z M1925.6,264l-23.5-4.2v-12.3h53
		v12.3L1931,264H1925.6z"/>
	<g>
		
			<linearGradient id="SVGID_00000044891389496119616870000010069500963590316180_" gradientUnits="userSpaceOnUse" x1="381.0811" y1="604.9473" x2="174.8527" y2="131.3868">
			<stop  offset="0" style="stop-color:#000000;stop-opacity:0"/>
			<stop  offset="1" style="stop-color:#000000;stop-opacity:0.3"/>
		</linearGradient>
		<path style="fill:url(#SVGID_00000044891389496119616870000010069500963590316180_);" d="M264,529.7
			c-79.2-34.2-57.2-129.9-22.5-167c43-46,66.8,0.6,74-12.6c7.2-13.1-7.8-47.8-55-23.8c-114.5,58.2-106.3,194.3-50.4,227
			c141.2,82.4,286.1-57.6,286.1-57.6C437.2,544.4,315.3,551.8,264,529.7z"/>
		
			<linearGradient id="SVGID_00000169529123499393708150000012192279646853891722_" gradientUnits="userSpaceOnUse" x1="152.5456" y1="459.9136" x2="-2.3473" y2="234.2958">
			<stop  offset="0" style="stop-color:#000000;stop-opacity:0"/>
			<stop  offset="1" style="stop-color:#000000;stop-opacity:0.3"/>
		</linearGradient>
		<path style="fill:url(#SVGID_00000169529123499393708150000012192279646853891722_);" d="M146,295.4c0,0-115.9,109-47.8,221
			c0,0-101.2-59.2-59.7-199.2C63.1,234.3,83.6,296,146,295.4z"/>
		
			<linearGradient id="SVGID_00000141427835765692438090000011530632097332677033_" gradientUnits="userSpaceOnUse" x1="157.017" y1="637.6547" x2="157.0945" y2="637.6547" gradientTransform="matrix(0.9687 0.2481 -0.2481 0.9687 -12.4687 -126.8953)">
			<stop  offset="0" style="stop-color:#00A2FF"/>
			<stop  offset="1" style="stop-color:#00004F"/>
		</linearGradient>
		<path style="fill:url(#SVGID_00000141427835765692438090000011530632097332677033_);" d="M-18.5,529.9
			C-18.5,529.9-18.5,529.9-18.5,529.9c0-0.1,0-0.2,0-0.2C-18.5,529.7-18.5,529.8-18.5,529.9z"/>
		
			<radialGradient id="SVGID_00000123429308800965345390000010531519025505464467_" cx="398.3072" cy="17.461" r="524.1595" gradientUnits="userSpaceOnUse">
			<stop  offset="0" style="stop-color:#FFDB47"/>
			<stop  offset="1" style="stop-color:#FF0038"/>
		</radialGradient>
		<path style="fill:url(#SVGID_00000123429308800965345390000010531519025505464467_);" d="M366.6,377.8
			C560.5,362.3,630.8,249,619.1,178.4c-38.8,49.6-162.7,98.4-255.5,95.3C572.9,200,590.5,29,571.9,0
			C523,104.4,390.7,147.4,177.5,197.4c-196.3,46-148.6,261.4-116.8,206.5c44.6-76.9,109.6-156.4,184-138
			c42.7,10.6,42.9,36.7,42.9,36.7s57.9,6.8,27.9,47.6c5.1-23-31-33.4-74,12.6c-34.7,37-56.7,132.7,22.5,167
			c51.2,22.1,173.1,14.7,232.1-34c-60.2,15.8-151.8-10.6-175.7-42c166.5,29.9,233.9-29.2,246-91
			C512.6,395.3,434.1,399.8,366.6,377.8z"/>
		
			<radialGradient id="SVGID_00000083804084115612460010000014435021259591487384_" cx="449.6737" cy="47.3608" r="263.8865" gradientUnits="userSpaceOnUse">
			<stop  offset="0" style="stop-color:#FFAD63"/>
			<stop  offset="1" style="stop-color:#DA0027"/>
		</radialGradient>
		<path style="fill:url(#SVGID_00000083804084115612460010000014435021259591487384_);" d="M369.1,271.8
			C573.1,196.9,590.3,28.7,571.9,0c-0.5,1.2-1.1,2.3-1.7,3.5C561,60,529.1,118.6,488.1,163.9C423.8,235,302.6,286.2,369.1,271.8z"/>
		
			<radialGradient id="SVGID_00000163055737056282380330000005208538474386286523_" cx="510.7518" cy="234.1724" r="212.5897" gradientUnits="userSpaceOnUse">
			<stop  offset="0" style="stop-color:#FFAD63"/>
			<stop  offset="1" style="stop-color:#DA0027"/>
		</radialGradient>
		<path style="fill:url(#SVGID_00000163055737056282380330000005208538474386286523_);" d="M566.3,362.9
			c-19.4,36.2-57,59.2-101.5,69.9c-92.4,22.1-200.3,2.8-136.4,22.3c160.8,26.6,226.3-31.5,238.1-92.3
			C566.4,362.8,566.3,362.8,566.3,362.9z"/>
		
			<radialGradient id="SVGID_00000168078312427508517310000010398871898117491852_" cx="477.5308" cy="142.4272" r="234.3119" gradientUnits="userSpaceOnUse">
			<stop  offset="0" style="stop-color:#FFAD63"/>
			<stop  offset="1" style="stop-color:#DA0027"/>
		</radialGradient>
		<path style="fill:url(#SVGID_00000168078312427508517310000010398871898117491852_);" d="M619.2,179.6
			c-3.1,40.7-43.1,94.1-103.9,129.7c-79.7,46.8-216.7,64.3-145.7,68.2C560.2,361.1,629.9,249.9,619.2,179.6z"/>
		
			<radialGradient id="SVGID_00000147913202252383163110000005315515772829981582_" cx="382.9745" cy="340.4841" r="201.6388" gradientUnits="userSpaceOnUse">
			<stop  offset="0" style="stop-color:#FFAD63"/>
			<stop  offset="1" style="stop-color:#DA0027"/>
		</radialGradient>
		<path style="fill:url(#SVGID_00000147913202252383163110000005315515772829981582_);" d="M241.5,362.7
			c-34.7,37-56.7,132.7,22.5,167c51.2,22.1,173.1,14.7,232.1-34C339,582.2,176,499.4,241.5,362.7z"/>
		
			<radialGradient id="SVGID_00000138537804081397804490000003703990060802832274_" cx="266.9522" cy="321.5749" r="229.3374" gradientUnits="userSpaceOnUse">
			<stop  offset="0" style="stop-color:#FFAD63"/>
			<stop  offset="1" style="stop-color:#DA0027"/>
		</radialGradient>
		<path style="fill:url(#SVGID_00000138537804081397804490000003703990060802832274_);" d="M73.8,331.8
			c-3.5-97,166.4-132.6,194.6-156.8c-28.5,7.5-58.8,14.8-90.9,22.4c-196.3,46-148.6,261.4-116.8,206.5
			c14.3-24.6,30.6-49.5,48.7-71.4C101.6,338.7,75.5,355.6,73.8,331.8z"/>
	</g>
	<rect x="882.4" y="-214.8" class="st9" width="23.8" height="23.8"/>
</g>
</svg>
